  Piranha 3DD(2012)Unrated 1920x1080p BDRip In[Hindi(448kbps)-Eng(Dts)]AC3-DGrea8


Summary:-


Having awoken from their spring break extravaganza at Lake Victoria, the swarm heads upstream where they look to make a meal out of Big Wet, a local water park where when it comes to fun, nobody does it wetter! Though they came to get wet, get loaded and get some, the staff and patrons get more than they bargained for when they must face the fiercest, most bloodthirsty piranhas yet. Lead by the strong-willed, studious Maddy and her friends, Barry and Kyle, the trio must dive in and take on these man-eating creatures using every ounce of their being but can they be stopped?


Cast:-


Danielle Panabaker...Maddy
Matt Bush............Barry
Katrina Bowden.......Shelby
Jean-Luc Bilodeau....Josh
David Koechner.......Chet
Chris Zylka..........Kyle
Adrian Martinez......Big Dave
Paul James Jordan....Travis
Meagan Tandy.........Ashley
David Hasselhoff.....Himself
Christopher Lloyd....Mr. Goodman
Paul Scheer..........Andrew
Gary Busey...........Clayton
Clu Gulager..........Mo
Sierra Fisk..........Bethany



Video & Audio Info.:-

Director: John Gulager
Writers: Patrick Melton, Marcus Dunstan
Stars: Danielle Panabaker, Ving Rhames, David Hasselhoff
Release Date: 15 June 2012 (India)
Filming Locations: The Salton Sea, California, USA
Genres: Comedy | Horror | Thriller


Video
ID : 1
Format : AVC
Format/Info : Advanced Video Codec
Duration : 1h 19mn
Bit rate : 2 322 Kbps
Width : 1 920 pixels
Height : 1 080 pixels
Display aspect ratio : 16:9
Frame rate : 25.000 fps
Original frame rate : 23.976 fps
Color space : YUV
Chroma subsampling : 4:2:0
Bit depth : 8 bits
Scan type : Progressive


Audio #1
ID : 2
Format : AC-3
Format/Info : Audio Coding 3
Mode extension : CM (complete main)
Muxing mode : Header stripping
Codec ID : A_AC3
Duration : 1h 19mn
Bit rate mode : Constant
Bit rate : 448 Kbps
Channel(s) : 6 channels
Channel positions : Front: L C R, Side: L R, LFE
Sampling rate : 48.0 KHz
Bit depth : 16 bits
Compression mode : Lossy
Delay relative to video : 7s 0ms
Stream size : 254 MiB (12%)
Title : Hindi(448 kbps)
Language : Hindi

Audio #2
ID : 3
Format : DTS
Format/Info : Digital Theater Systems
Muxing mode : Header stripping
Codec ID : A_DTS
Duration : 1h 19mn
Bit rate mode : Constant
Bit rate : 755 Kbps
Channel(s) : 6 channels
Channel positions : Front: L C R, Side: L R, LFE
Sampling rate : 48.0 KHz
Bit depth : 24 bits
Compression mode : Lossy
Stream size : 428 MiB (21%)
Title : Dts
Language : English

Subtitle Languages : English


Screen Shoots:-

      
http://www.shotpix.com/images/96437775010997131420.jpg
 
http://www.shotpix.com/images/47205844785646987727.jpg
 
http://www.shotpix.com/images/90154873542632901246.jpg
 
http://www.shotpix.com/images/61453345258326956789.jpg
 
http://www.shotpix.com/images/00411797909072808133.jpg


Note:-- Check The Torrent


ENGLISH AND HINDI 6CH AUDIO MIX VIDEO SAMPLE	

ONLY 6CH HINDI VIDEO SAMPLE	
				